<svg xmlns="http://www.w3.org/2000/svg" width="1408" height="216" viewBox="0 0 1408 216" fill="none">
  <path d="M-0.00012207 1.3064H38.2901V211.64H-0.00012207V1.3064ZM19.0686 117.636C26.5502 117.636 32.7086 111.478 32.7086 104.149C32.7086 96.8199 26.5502 90.5088 19.0686 90.5088C11.587 90.5088 5.58138 96.6672 5.58138 104.149C5.58138 111.63 11.7397 117.636 19.0686 117.636Z" fill="#393939"/>
  <path d="M56.358 57.6303H90.831V71.9997C90.831 75.2231 88.9309 76.9875 85.9959 76.9875H78.9554C71.1854 76.9875 65.0271 82.7047 65.0271 90.4747C65.0271 98.2447 70.6086 104.115 78.226 104.115C85.8433 104.115 90.1015 99.2796 92.307 90.4747C98.9064 66.8593 113.276 53.3721 139.538 53.3721C170.041 53.3721 188.228 74.4936 188.228 106.184V211.639H150.972V109.408C150.972 92.3918 142.32 82.569 125.898 82.569C105.659 82.569 93.6302 98.5501 93.6302 128.188V211.656H56.3749V57.6473L56.358 57.6303Z" fill="#393939"/>
  <path d="M221.123 169.855V86.3863H194.861V57.6304H197.949C217.458 57.6304 225.958 49.4194 227.145 26.9745L227.875 11.8586H258.242V46.179C258.242 49.7077 256.342 51.7605 252.814 51.7605H245.044C236.968 51.7605 230.81 57.7662 230.81 65.4005C230.81 73.4759 236.968 79.6342 245.044 79.6342C252.678 79.6342 258.684 73.4759 258.684 65.4005V62.9066C258.684 59.5305 260.736 57.6304 264.265 57.6304H291.833V86.3863H258.242V165.885C258.242 179.966 266.012 184.36 277.464 184.36C281.281 184.36 285.387 183.919 289.204 183.036V211.64C283.045 213.404 276.005 214.422 268.082 214.422C240.073 214.422 221.14 202.546 221.14 169.838L221.123 169.855Z" fill="#393939"/>
  <path d="M297.177 134.499C297.177 83.6038 329.004 53.3889 371.552 53.3889C414.1 53.3889 441.804 81.1099 441.804 132.158C441.804 136.111 441.804 139.928 441.652 143.592H348.802C340.879 143.592 335.315 138.164 335.315 130.682C335.315 123.2 340.879 117.771 348.802 117.771H403.226C401.767 92.5444 390.315 80.9572 371.399 80.9572C353.79 80.9572 341.032 92.3917 337.215 112.784C336.485 116.16 334.568 117.619 330.768 117.619H328.121C320.64 117.619 314.923 122.759 314.923 130.241C314.923 137.722 320.64 142.863 328.121 142.863H330.904C334.28 142.863 336.044 144.186 336.333 147.851C338.097 174.554 352.466 187.888 372.858 187.888C389.433 187.888 401.02 178.201 403.514 160.456H441.058C437.105 194.199 411.437 215.898 371.535 215.898C327.969 215.898 297.16 189.788 297.16 134.499H297.177Z" fill="#393939"/>
  <path d="M455.462 57.6305H490.07V72.1527C490.07 74.6465 488.018 76.9877 485.235 76.9877H479.518C472.037 76.9877 465.437 82.4165 465.437 90.4749C465.437 98.1092 471.019 104.115 478.636 104.115C486.253 104.115 490.223 98.5333 492.123 90.4749C493.735 83.8755 496.381 78.0056 499.757 73.1705C507.68 61.295 520.438 54.6956 537.166 54.6956C540.1 54.6956 542.883 54.984 544.8 55.425V91.6625C540.983 90.7803 537.166 90.3392 532.924 90.3392C510.191 90.3392 492.734 105.15 492.734 136.976V211.64H455.479V57.6305H455.462Z" fill="#393939"/>
  <path d="M552.909 57.6303H587.382V71.9997C587.382 75.2231 585.482 76.9875 582.547 76.9875H575.506C567.736 76.9875 561.578 82.7047 561.578 90.4747C561.578 98.2447 567.159 104.115 574.777 104.115C582.394 104.115 586.652 99.2796 588.858 90.4747C595.457 66.8593 609.827 53.3721 636.089 53.3721C666.592 53.3721 684.778 74.4936 684.778 106.184V211.639H647.523V109.408C647.523 92.3918 638.871 82.569 622.449 82.569C602.209 82.569 590.181 98.5501 590.181 128.188V211.656H552.926V57.6473L552.909 57.6303Z" fill="#393939"/>
  <path d="M696.4 169.702C696.4 139.928 715.621 126.135 745.395 121.589L771.216 117.636C787.502 115.142 794.102 111.477 794.102 101.349C794.102 91.2211 786.179 80.8215 768.281 80.8215C750.383 80.8215 739.966 90.3559 739.084 105.76H700.505C701.676 75.257 727.785 53.3889 767.823 53.3889C807.86 53.3889 831.629 74.9516 831.629 110.748V176.165C831.629 188.787 833.393 203.598 837.651 206.974V211.673H798.784C797.325 205.956 796.138 198.763 795.408 191.145C786.315 205.227 769.299 215.932 746.854 215.932C718.251 215.932 696.4 198.474 696.4 169.736V169.702ZM759.171 187.447C781.616 187.447 793.644 171.466 794.967 150.48L795.12 147.698C795.561 143.592 798.055 141.54 802.16 141.54H805.384C812.865 141.54 819.176 135.67 819.176 127.747C819.176 119.824 813.171 114.107 805.384 114.107C797.597 114.107 791.303 119.824 791.303 127.9V130.241C791.303 135.822 788.656 138.605 781.921 139.928L775.169 141.251L759.917 144.339C743.342 147.715 734.843 154.314 734.843 167.225C734.843 180.135 745.259 187.464 759.188 187.464L759.171 187.447Z" fill="#393939"/>
  <path d="M851.46 1.3064H888.716V211.64H851.46V1.3064Z" fill="#393939"/>
  <path d="M907.784 0H947.822V35.7963H907.784V0ZM909.108 57.6304H946.363V211.64H909.108V57.6304Z" fill="#393939"/>
  <path d="M984.942 169.855V86.3863H958.68V57.6304H961.768C981.277 57.6304 989.777 49.4194 990.965 26.9745L991.694 11.8586H1022.06V46.179C1022.06 49.7077 1020.16 51.7605 1016.63 51.7605H1008.86C1000.79 51.7605 994.629 57.7662 994.629 65.4005C994.629 73.4759 1000.79 79.6342 1008.86 79.6342C1016.5 79.6342 1022.5 73.4759 1022.5 65.4005V62.9066C1022.5 59.5305 1024.56 57.6304 1028.08 57.6304H1055.65V86.3863H1022.06V165.885C1022.06 179.966 1029.83 184.36 1041.28 184.36C1045.1 184.36 1049.21 183.919 1053.02 183.036V211.64C1046.86 213.404 1039.82 214.422 1031.9 214.422C1003.89 214.422 984.959 202.546 984.959 169.838L984.942 169.855Z" fill="#393939"/>
  <path d="M1065.64 0H1105.68V35.7963H1065.64V0ZM1066.97 57.6304H1104.22V211.64H1066.97V57.6304Z" fill="#393939"/>
  <path d="M1118.36 134.499C1118.36 83.6038 1150.18 53.3889 1192.73 53.3889C1235.28 53.3889 1262.98 81.1099 1262.98 132.158C1262.98 136.111 1262.98 139.928 1262.83 143.592H1169.98C1162.06 143.592 1156.49 138.164 1156.49 130.682C1156.49 123.2 1162.06 117.771 1169.98 117.771H1224.4C1222.94 92.5444 1211.49 80.9572 1192.58 80.9572C1174.97 80.9572 1162.21 92.3917 1158.39 112.784C1157.66 116.16 1155.75 117.619 1151.95 117.619H1149.3C1141.82 117.619 1136.1 122.759 1136.1 130.241C1136.1 137.722 1141.82 142.863 1149.3 142.863H1152.08C1155.46 142.863 1157.22 144.186 1157.51 147.851C1159.27 174.554 1173.64 187.888 1194.04 187.888C1210.61 187.888 1222.2 178.201 1224.69 160.456H1262.24C1258.28 194.199 1232.61 215.898 1192.71 215.898C1149.15 215.898 1118.34 189.788 1118.34 134.499H1118.36Z" fill="#393939"/>
  <path d="M1272.5 162.814H1311.52C1312.11 179.541 1324.87 188.77 1343.21 188.77C1359.5 188.77 1369.76 181.577 1369.76 169.854C1369.76 159.879 1362.87 155.179 1347.76 152.109L1321.05 146.833C1289.23 140.522 1275.72 126.152 1275.72 103.707C1275.72 74.8158 1299.49 53.3889 1340.55 53.3889C1381.6 53.3889 1404.2 75.9695 1405.52 104.284H1367.23C1366.64 89.1683 1356.38 80.075 1339.8 80.075C1324.26 80.075 1313.98 87.845 1313.98 98.9911C1313.98 107.643 1320.14 112.631 1333.34 115.278L1362.09 120.706C1393.04 126.729 1408 140.946 1408 164.714C1408 198.899 1379.24 215.898 1342.58 215.898C1299.9 215.898 1273.2 196.235 1272.47 162.797L1272.5 162.814ZM1342.91 145.645C1349.35 145.645 1354.78 140.216 1354.78 133.617C1354.78 127.017 1349.06 121.589 1342.75 121.589C1336.44 121.589 1330.57 127.017 1330.57 133.617C1330.57 140.216 1336.44 145.645 1342.89 145.645H1342.91Z" fill="#393939"/>
</svg>
